<svg width="23" height="34" viewBox="0 0 23 34" fill="none" xmlns="http://www.w3.org/2000/svg">
<path d="M0.88 0.509997V3.795H16.045L5.74 14.505L7.72 16.71C8.98 16.08 10.375 15.765 11.68 15.765C15.19 15.765 18.79 17.925 18.79 22.695C18.79 27.015 16.045 30.39 11.455 30.39C7.36 30.39 4.21 28.14 3.94 24.09L0.205 24.54C0.205 30.885 6.19 33.63 11.455 33.63C18.115 33.63 22.525 28.635 22.525 22.695C22.525 17.475 18.835 12.615 12.805 12.57C12.49 12.57 11.995 12.615 11.59 12.75L21.175 2.985V0.509997H0.88Z" fill="#181818"/>
</svg>
